<?xml version="1.0" standalone="no"?>
<!DOCTYPE svg PUBLIC "-//W3C//DTD SVG 20010904//EN"
 "http://www.w3.org/TR/2001/REC-SVG-20010904/DTD/svg10.dtd">
<svg version="1.0" xmlns="http://www.w3.org/2000/svg"
 width="196.000000pt" height="196.000000pt" viewBox="0 0 196.000000 196.000000"
 preserveAspectRatio="xMidYMid meet">

<g transform="translate(0.000000,196.000000) scale(0.100000,-0.100000)"
fill="#000000" stroke="none">
<path d="M875 1954 c-428 -63 -740 -339 -846 -750 -29 -112 -32 -317 -6 -431
68 -297 260 -541 531 -673 139 -68 231 -91 391 -97 215 -8 398 42 571 156 293
193 456 511 441 861 -6 154 -30 250 -97 386 -132 271 -381 468 -673 530 -73
15 -257 26 -312 18z m262 -169 c323 -68 564 -297 644 -610 40 -161 22 -376
-46 -530 -82 -185 -245 -345 -433 -425 l-67 -29 -6 107 c-6 110 -19 153 -59
190 -20 19 -19 19 62 35 215 42 321 154 349 369 17 122 -5 222 -67 304 -21 28
-22 36 -12 70 11 42 5 143 -11 187 -8 20 -17 27 -36 27 -37 0 -128 -34 -184
-68 l-47 -30 -70 14 c-91 17 -252 17 -336 -1 l-67 -14 -58 35 c-59 35 -139 64
-179 64 -16 0 -25 -9 -33 -32 -19 -53 -24 -131 -12 -175 11 -39 9 -44 -19 -86
-47 -70 -60 -119 -60 -226 0 -132 24 -215 86 -298 51 -68 176 -130 298 -147
l48 -8 -25 -26 c-39 -41 -47 -74 -47 -188 0 -124 10 -120 -135 -49 -427 207
-583 741 -339 1155 113 192 323 341 543 385 90 18 235 18 318 0z"/>
</g>
</svg>
